<?xml version="1.0" encoding="UTF-8"?>
<svg width="346px" height="176px" viewBox="0 0 346 176" version="1.1" xmlns="http://www.w3.org/2000/svg" xmlns:xlink="http://www.w3.org/1999/xlink">
    <!-- Generator: Sketch 43.2 (39069) - http://www.bohemiancoding.com/sketch -->
    <title>Group</title>
    <desc>Created with Sketch.</desc>
    <defs></defs>
    <g id="Page-1" stroke="none" stroke-width="1" fill="none" fill-rule="evenodd">
        <g id="Desktop-HD" transform="translate(-451.000000, -582.000000)" fill-rule="nonzero" fill="#FFFFFF">
            <g id="Group" transform="translate(451.000000, 582.000000)">
                <path d="M43.184,3.742 C58.278,3.742 64.936,7.821 69.471,11.822 C76.252,17.734 80.142,26.16 80.142,34.94 C80.142,42.425 76.487,50.156 72.876,53.923 L70.061,56.861 L73.701,58.681 C84.013,63.838 90.942,75.707 90.942,88.217 C90.942,97.551 87.074,106.675 80.301,113.275 C73.067,120.509 63.562,123.735 49.484,123.735 L3.346,123.735 L3.346,3.742 L43.184,3.742 L43.184,3.742 Z M21.645,52.34 L24.645,52.34 L41.745,52.34 C49.176,52.34 53.869,50.709 57.449,46.875 C60.242,43.848 61.844,39.826 61.844,35.84 C61.844,31.856 60.242,27.833 57.437,24.793 C53.869,20.972 49.176,19.341 41.746,19.341 L24.646,19.341 L21.646,19.341 L21.646,22.341 L21.646,49.34 L21.646,52.34 L21.645,52.34 Z M21.645,108.138 L24.645,108.138 L48.944,108.138 C57.486,108.138 63.337,106.057 67.353,101.587 C70.814,97.897 72.643,93.213 72.643,88.039 C72.643,82.865 70.814,78.181 67.353,74.49 C63.336,70.021 57.486,67.939 48.944,67.939 L24.645,67.939 L21.645,67.939 L21.645,70.939 L21.645,105.137 L21.645,108.138 L21.645,108.138 Z M43.184,0.742 L0.346,0.742 L0.346,126.736 L49.484,126.736 C65.683,126.736 75.403,122.417 82.422,115.397 C89.442,108.557 93.942,98.837 93.942,88.218 C93.942,74.178 86.202,61.579 75.043,55.999 C79.183,51.679 83.143,43.22 83.143,34.939 C83.143,24.68 78.463,15.68 71.444,9.56 C65.322,4.162 57.402,0.742 43.184,0.742 L43.184,0.742 Z M24.645,49.34 L24.645,22.341 L41.745,22.341 C49.304,22.341 52.724,24.141 55.244,26.841 C57.403,29.181 58.844,32.421 58.844,35.84 C58.844,39.26 57.404,42.5 55.244,44.84 C52.723,47.54 49.304,49.34 41.745,49.34 L24.645,49.34 L24.645,49.34 Z M24.645,105.138 L24.645,70.94 L48.944,70.94 C57.403,70.94 62.083,73.1 65.143,76.52 C68.023,79.579 69.643,83.54 69.643,88.04 C69.643,92.539 68.023,96.499 65.143,99.56 C62.082,102.979 57.403,105.139 48.944,105.139 L24.645,105.139 L24.645,105.138 Z" id="Shape"></path>
                <path d="M161.336,1.241 C148.041,1.241 137.224,12.057 137.224,25.353 C137.224,34.199 141.842,41.942 148.963,46.138 C148.963,46.138 149,46.23 149,46.252 L149,126.919 L173,126.919 L173,46.318 C173,46.174 173.302,46.174 173.364,46.137 C180.485,41.941 185.362,34.198 185.362,25.352 C185.362,12.058 174.632,1.241 161.336,1.241 Z M161.336,46.466 C149.694,46.466 140.224,36.995 140.224,25.354 C140.224,13.713 149.695,4.242 161.336,4.242 C172.977,4.242 182.448,13.713 182.448,25.354 C182.448,36.995 172.978,46.466 161.336,46.466 Z" id="Shape"></path>
                <path d="M282.936,3.768 C293.936,3.768 302.038,6.487 308.431,12.323 C314.916,18.477 318.635,27.055 318.635,35.866 C318.635,44.684 314.908,53.272 308.411,59.428 C305.164,62.504 301.418,64.696 296.957,66.129 L292.769,67.473 L295.55,70.881 L338.711,123.762 L316.412,123.762 L272.494,69.086 L271.594,67.965 L270.156,67.965 L261.336,67.965 L258.336,67.965 L258.336,70.965 L258.336,123.762 L240.038,123.762 L240.038,3.768 L282.936,3.768 L282.936,3.768 Z M258.336,52.365 L261.336,52.365 L281.496,52.365 C288.644,52.365 292.829,50.99 295.941,47.619 C298.693,44.637 300.336,40.31 300.336,36.045 C300.336,31.668 298.693,27.274 295.94,24.291 C292.753,20.838 288.433,19.365 281.496,19.365 L261.336,19.365 L258.336,19.365 L258.336,22.365 L258.336,49.365 L258.336,52.365 L258.336,52.365 Z M282.936,0.768 L237.039,0.768 L237.039,126.762 L261.337,126.762 L261.337,70.965 L270.157,70.965 L314.975,126.762 L345.034,126.762 L297.876,68.985 C302.917,67.366 307.056,64.844 310.476,61.606 C317.316,55.126 321.636,45.946 321.636,35.866 C321.636,25.786 317.316,16.606 310.476,10.128 C304.176,4.367 295.896,0.768 282.936,0.768 L282.936,0.768 Z M261.336,49.365 L261.336,22.365 L281.496,22.365 C288.516,22.365 291.576,23.986 293.736,26.326 C295.895,28.666 297.336,32.265 297.336,36.045 C297.336,39.645 295.896,43.246 293.736,45.586 C291.576,47.926 288.515,49.365 281.496,49.365 L261.336,49.365 L261.336,49.365 Z" id="Shape"></path>
                <g transform="translate(0.000000, 153.000000)" id="Shape">
                    <path d="M0.346,1.562 L6.134,1.562 C8.914,1.562 10.655,3.031 10.655,5.833 C10.655,7.121 10.09,8.229 9.095,8.749 C10.677,9.405 11.469,10.692 11.469,12.614 C11.469,15.666 9.501,17.384 6.246,17.384 L0.346,17.384 L0.346,1.562 L0.346,1.562 Z M3.285,4.273 L3.285,7.71 L5.975,7.71 C7.218,7.71 7.829,7.234 7.829,5.992 C7.829,4.748 7.195,4.273 5.907,4.273 L3.285,4.273 Z M3.285,10.423 L3.285,14.672 L5.975,14.672 C7.671,14.672 8.529,13.971 8.529,12.547 C8.529,11.123 7.671,10.423 5.975,10.423 L3.285,10.423 Z"></path>
                    <polygon points="14.75 1.381 17.553 1.381 17.553 17.385 14.75 17.385"></polygon>
                    <path d="M20.719,11.689 C20.719,9.994 21.24,8.591 22.28,7.483 C23.32,6.377 24.721,5.81 26.507,5.81 C28.293,5.81 29.695,6.376 30.734,7.483 C31.774,8.591 32.294,9.994 32.294,11.689 C32.294,13.384 31.774,14.808 30.734,15.916 C29.694,17.024 28.293,17.566 26.507,17.566 C24.721,17.566 23.319,17.023 22.28,15.916 C21.241,14.809 20.719,13.385 20.719,11.689 Z M23.658,11.689 C23.658,12.66 23.907,13.497 24.426,14.175 C24.947,14.83 25.625,15.169 26.507,15.169 C27.388,15.169 28.067,14.83 28.586,14.175 C29.106,13.496 29.356,12.659 29.356,11.689 C29.356,10.716 29.106,9.879 28.586,9.224 C28.066,8.546 27.388,8.206 26.507,8.206 C25.625,8.206 24.948,8.546 24.426,9.224 C23.906,9.88 23.658,10.717 23.658,11.689 Z"></path>
                    <path d="M45.703,14.311 C44.821,16.481 43.103,17.567 40.526,17.567 C38.739,17.567 37.383,17.002 36.411,15.893 C35.439,14.786 34.964,13.385 34.964,11.69 C34.964,9.995 35.439,8.592 36.411,7.484 C37.383,6.378 38.739,5.811 40.526,5.811 C43.103,5.811 44.82,6.897 45.703,9.067 L43.193,10.085 C42.583,8.841 41.678,8.208 40.526,8.208 C38.808,8.208 37.903,9.61 37.903,11.69 C37.903,13.768 38.807,15.17 40.526,15.17 C41.678,15.17 42.583,14.537 43.193,13.293 L45.703,14.311 Z"></path>
                    <polygon points="48.35 1.381 51.153 1.381 51.153 10.468 54.86 5.992 58.32 5.992 53.753 11.236 58.614 17.384 55.177 17.384 51.153 12.005 51.153 17.384 48.35 17.384 48.35 1.381"></polygon>
                    <path d="M70.643,14.311 C69.762,16.481 68.043,17.567 65.466,17.567 C63.68,17.567 62.323,17.002 61.351,15.893 C60.379,14.786 59.905,13.385 59.905,11.69 C59.905,9.995 60.379,8.592 61.351,7.484 C62.323,6.378 63.68,5.811 65.466,5.811 C68.043,5.811 69.762,6.897 70.643,9.067 L68.134,10.085 C67.523,8.841 66.62,8.208 65.467,8.208 C63.749,8.208 62.845,9.61 62.845,11.69 C62.845,13.768 63.748,15.17 65.467,15.17 C66.62,15.17 67.524,14.537 68.134,13.293 L70.643,14.311 Z"></path>
                    <path d="M73.473,1.381 L76.275,1.381 L76.275,7.823 C77.111,6.489 78.332,5.81 79.891,5.81 C82.084,5.81 83.441,6.986 83.441,9.247 L83.441,17.385 L80.638,17.385 L80.638,10.242 C80.638,8.885 80.072,8.207 78.943,8.207 C77.496,8.207 76.275,9.699 76.275,12.57 L76.275,17.384 L73.473,17.384 L73.473,1.381 Z"></path>
                    <path d="M86.881,8.977 C87.242,7.078 88.938,5.811 91.22,5.811 C94.408,5.811 96.013,7.394 96.013,10.582 L96.013,17.386 L93.706,17.386 L93.412,15.939 C92.531,17.025 91.355,17.568 89.909,17.568 C87.897,17.568 86.451,16.301 86.451,14.109 C86.451,11.848 88.417,10.379 91.311,10.379 L93.209,10.379 L93.209,9.882 C93.209,8.776 92.554,8.209 91.22,8.209 C90.203,8.209 89.547,8.639 89.255,9.52 L86.881,8.977 Z M90.565,15.17 C91.266,15.17 91.876,14.944 92.396,14.514 C92.938,14.084 93.209,13.52 93.209,12.82 L93.209,12.593 L91.334,12.593 C90.044,12.593 89.39,13.09 89.39,14.063 C89.39,14.672 89.82,15.17 90.565,15.17 Z"></path>
                    <path d="M99.317,1.426 C100.018,0.725 101.192,0.725 101.894,1.426 C102.596,2.127 102.595,3.302 101.894,4.003 C101.193,4.703 100.019,4.703 99.317,4.003 C98.616,3.302 98.616,2.127 99.317,1.426 Z M99.203,5.992 L102.007,5.992 L102.007,17.385 L99.203,17.385 L99.203,5.992 Z"></path>
                    <path d="M105.422,5.992 L108.225,5.992 L108.225,7.823 C109.152,6.489 110.328,5.81 111.751,5.81 C113.854,5.81 115.256,7.009 115.256,9.247 L115.256,17.385 L112.452,17.385 L112.452,10.084 C112.452,8.84 111.91,8.207 110.826,8.207 C109.379,8.207 108.225,9.971 108.225,12.842 L108.225,17.385 L105.422,17.385 L105.422,5.992 L105.422,5.992 Z"></path>
                    <polygon points="122.425 1.562 122.425 17.384 119.486 17.384 119.486 1.562"></polygon>
                    <path d="M133.685,7.032 L133.685,1.381 L136.489,1.381 L136.489,17.385 L133.685,17.385 L133.685,16.21 C133.324,16.865 132.215,17.566 130.927,17.566 C127.581,17.566 125.728,15.283 125.728,11.689 C125.728,8.093 127.581,5.81 130.927,5.81 C132.035,5.811 133.165,6.377 133.685,7.032 Z M128.667,11.689 C128.667,12.773 128.916,13.632 129.413,14.243 C129.91,14.853 130.542,15.17 131.312,15.17 C132.081,15.17 132.713,14.876 133.187,14.266 C133.685,13.655 133.933,12.797 133.933,11.69 C133.933,10.582 133.684,9.745 133.187,9.134 C132.712,8.524 132.08,8.207 131.312,8.207 C130.542,8.207 129.91,8.523 129.413,9.134 C128.915,9.744 128.667,10.604 128.667,11.689 Z"></path>
                    <path d="M150.349,12.593 L142.505,12.593 C142.572,13.971 143.567,15.17 145.195,15.17 C146.347,15.17 147.274,14.582 147.953,13.406 L150.213,14.243 C149.241,16.459 147.523,17.566 145.036,17.566 C141.125,17.566 139.566,14.4 139.566,11.689 C139.566,8.976 141.125,5.81 145.036,5.81 C146.845,5.81 148.313,6.556 149.128,7.709 C149.941,8.817 150.349,10.151 150.349,11.439 L150.349,12.593 L150.349,12.593 Z M142.572,10.377 L147.477,10.377 C147.161,8.93 146.346,8.207 145.036,8.207 C143.703,8.207 142.776,9.18 142.572,10.377 Z"></path>
                    <path d="M153.473,5.992 L156.276,5.992 L156.276,7.823 C157.203,6.489 158.379,5.81 159.802,5.81 C161.905,5.81 163.306,7.009 163.306,9.247 L163.306,17.385 L160.503,17.385 L160.503,10.084 C160.503,8.84 159.961,8.207 158.876,8.207 C157.429,8.207 156.276,9.971 156.276,12.842 L156.276,17.385 L153.473,17.385 L153.473,5.992 Z"></path>
                    <path d="M173.707,17.16 C173.12,17.43 172.509,17.566 171.854,17.566 C169.231,17.566 167.672,16.142 167.672,13.361 L167.672,8.388 L165.909,8.388 L165.909,5.992 L167.672,5.992 L167.672,3.142 L170.475,1.38 L170.475,5.991 L173.481,5.991 L173.481,8.387 L170.475,8.387 L170.475,13.315 C170.475,14.67 170.972,15.169 171.967,15.169 C172.352,15.169 172.713,15.079 173.052,14.898 L173.707,17.16 Z"></path>
                    <path d="M176.581,1.426 C177.282,0.725 178.457,0.725 179.159,1.426 C179.859,2.127 179.859,3.302 179.159,4.003 C178.458,4.703 177.282,4.703 176.581,4.003 C175.88,3.302 175.88,2.127 176.581,1.426 Z M176.468,5.992 L179.271,5.992 L179.271,17.385 L176.468,17.385 L176.468,5.992 Z"></path>
                    <path d="M189.807,17.16 C189.219,17.43 188.609,17.566 187.953,17.566 C185.33,17.566 183.771,16.142 183.771,13.361 L183.771,8.388 L182.008,8.388 L182.008,5.992 L183.771,5.992 L183.771,3.142 L186.575,1.38 L186.575,5.991 L189.581,5.991 L189.581,8.387 L186.575,8.387 L186.575,13.315 C186.575,14.67 187.073,15.169 188.067,15.169 C188.45,15.169 188.813,15.079 189.151,14.898 L189.807,17.16 Z"></path>
                    <polygon points="191.527 5.992 194.352 5.992 196.997 13.135 199.484 5.992 202.288 5.992 196.41 21.997 193.698 21.997 195.665 16.662"></polygon>
                    <path d="M212.553,10.309 L216.939,17.385 L213.662,17.385 L209.412,10.559 L207.873,10.559 L207.873,17.385 L204.935,17.385 L204.935,1.563 L210.7,1.563 C213.774,1.563 215.514,3.347 215.514,6.06 C215.514,8.162 214.452,9.744 212.553,10.309 Z M210.722,7.846 C211.965,7.846 212.575,7.258 212.575,6.06 C212.575,4.862 211.965,4.274 210.722,4.274 L207.873,4.274 L207.873,7.846 L210.722,7.846 Z"></path>
                    <path d="M229.625,12.593 L221.782,12.593 C221.849,13.971 222.844,15.17 224.471,15.17 C225.624,15.17 226.552,14.582 227.229,13.406 L229.491,14.243 C228.519,16.459 226.801,17.566 224.314,17.566 C220.403,17.566 218.842,14.4 218.842,11.689 C218.842,8.976 220.403,5.81 224.314,5.81 C226.122,5.81 227.591,6.556 228.405,7.709 C229.218,8.817 229.626,10.151 229.626,11.439 L229.626,12.593 L229.625,12.593 Z M221.849,10.377 L226.755,10.377 C226.438,8.93 225.624,8.207 224.314,8.207 C222.979,8.207 222.051,9.18 221.849,10.377 Z"></path>
                    <path d="M234.037,6.873 C234.828,6.172 235.823,5.811 237.021,5.811 C237.767,5.811 238.468,5.969 239.124,6.309 L241.271,5.178 L242.379,7.032 L240.751,7.845 C241.045,8.365 241.203,8.976 241.203,9.654 C241.203,10.806 240.796,11.734 240.005,12.434 C239.214,13.113 238.22,13.452 237.022,13.452 C236.457,13.452 235.892,13.361 235.371,13.203 C235.01,13.406 234.829,13.701 234.829,14.062 C234.829,14.626 235.191,14.898 235.892,14.898 L238.22,14.898 C240.661,14.898 242.221,16.095 242.221,18.244 C242.221,19.125 241.95,19.871 241.43,20.482 C240.367,21.724 238.853,22.177 237.044,22.177 C235.529,22.177 234.286,21.861 233.314,21.204 C232.364,20.55 231.89,19.622 231.89,18.424 C231.89,17.497 232.207,16.728 232.817,16.163 C232.434,15.688 232.23,15.101 232.23,14.399 C232.23,13.36 232.705,12.569 233.63,12.004 C233.11,11.348 232.839,10.579 232.839,9.652 C232.838,8.501 233.246,7.574 234.037,6.873 Z M236.048,17.25 C235.528,17.25 235.098,17.227 234.737,17.16 C234.578,17.408 234.488,17.746 234.488,18.199 C234.488,19.261 235.505,19.826 237.042,19.826 C238.625,19.826 239.416,19.351 239.416,18.425 C239.416,17.634 238.805,17.25 237.584,17.25 L236.048,17.25 Z M237.021,11.191 C237.925,11.191 238.58,10.558 238.58,9.654 C238.58,8.728 237.925,8.072 237.021,8.072 C236.117,8.072 235.461,8.728 235.461,9.654 C235.461,10.559 236.117,11.191 237.021,11.191 Z"></path>
                    <path d="M245.048,1.426 C245.749,0.725 246.924,0.725 247.626,1.426 C248.326,2.127 248.326,3.302 247.626,4.003 C246.925,4.703 245.749,4.703 245.048,4.003 C244.347,3.302 244.347,2.127 245.048,1.426 Z M244.935,5.992 L247.739,5.992 L247.739,17.385 L244.935,17.385 L244.935,5.992 Z"></path>
                    <path d="M258.59,7.665 L256.918,9.202 C256.397,8.547 255.765,8.207 255.019,8.207 C254.454,8.207 253.979,8.547 253.979,9.157 C253.979,9.631 254.34,9.994 255.064,10.263 L255.877,10.558 L256.849,10.896 C257.031,10.964 257.302,11.123 257.664,11.326 C258.047,11.531 258.319,11.711 258.477,11.914 C258.815,12.299 259.178,12.976 259.178,13.768 C259.178,14.831 258.793,15.713 258.047,16.459 C257.301,17.205 256.329,17.566 255.131,17.566 C254.046,17.566 253.097,17.25 252.306,16.638 C251.514,16.029 250.949,15.304 250.61,14.492 L252.848,13.293 C253.301,14.537 254.069,15.17 255.131,15.17 C256.058,15.17 256.533,14.764 256.533,13.949 C256.533,13.588 256.352,13.293 255.922,13.09 C255.719,12.977 255.493,12.887 255.29,12.819 C254.906,12.637 254.114,12.388 253.684,12.209 C252.237,11.598 251.379,10.762 251.379,9.134 C251.379,8.207 251.718,7.439 252.396,6.783 C253.075,6.127 253.957,5.81 255.019,5.81 C256.534,5.811 257.867,6.557 258.59,7.665 Z"></path>
                    <path d="M268.721,17.16 C268.134,17.43 267.523,17.566 266.867,17.566 C264.245,17.566 262.685,16.142 262.685,13.361 L262.685,8.388 L260.922,8.388 L260.922,5.992 L262.685,5.992 L262.685,3.142 L265.489,1.38 L265.489,5.991 L268.495,5.991 L268.495,8.387 L265.489,8.387 L265.489,13.315 C265.489,14.67 265.987,15.169 266.981,15.169 C267.365,15.169 267.727,15.079 268.066,14.898 L268.721,17.16 Z"></path>
                    <path d="M274.555,17.385 L271.752,17.385 L271.752,5.992 L274.555,5.992 L274.555,7.846 C275.369,6.557 276.591,5.811 277.924,5.811 C278.354,5.811 278.806,5.879 279.303,6.038 L278.783,8.638 C278.443,8.435 278.037,8.322 277.607,8.322 C275.822,8.322 274.555,9.882 274.555,13.34 L274.555,17.385 L274.555,17.385 Z"></path>
                    <polygon points="281.069 5.992 283.895 5.992 286.539 13.135 289.025 5.992 291.829 5.992 285.951 21.997 283.239 21.997 285.206 16.662"></polygon>
                    <path d="M294.793,14.266 C295.517,13.543 296.782,13.543 297.506,14.266 C298.23,14.99 298.23,16.255 297.506,16.979 C296.782,17.702 295.517,17.702 294.793,16.979 C294.07,16.255 294.07,14.989 294.793,14.266 Z"></path>
                    <path d="M312.134,14.311 C311.252,16.481 309.534,17.567 306.957,17.567 C305.171,17.567 303.814,17.002 302.842,15.893 C301.87,14.786 301.395,13.385 301.395,11.69 C301.395,9.995 301.87,8.592 302.842,7.484 C303.814,6.378 305.171,5.811 306.957,5.811 C309.534,5.811 311.252,6.897 312.134,9.067 L309.624,10.085 C309.014,8.841 308.111,8.208 306.957,8.208 C305.239,8.208 304.334,9.61 304.334,11.69 C304.334,13.768 305.239,15.17 306.957,15.17 C308.11,15.17 309.014,14.537 309.624,13.293 L312.134,14.311 Z"></path>
                    <path d="M314.6,11.689 C314.6,9.994 315.121,8.591 316.161,7.483 C317.201,6.377 318.603,5.81 320.388,5.81 C322.174,5.81 323.576,6.376 324.616,7.483 C325.656,8.591 326.175,9.994 326.175,11.689 C326.175,13.384 325.655,14.808 324.616,15.916 C323.577,17.024 322.174,17.566 320.388,17.566 C318.603,17.566 317.2,17.023 316.161,15.916 C315.122,14.809 314.6,13.385 314.6,11.689 Z M317.539,11.689 C317.539,12.66 317.788,13.497 318.308,14.175 C318.829,14.83 319.506,15.169 320.388,15.169 C321.269,15.169 321.948,14.83 322.468,14.175 C322.988,13.496 323.238,12.659 323.238,11.689 C323.238,10.716 322.988,9.879 322.468,9.224 C321.948,8.546 321.27,8.206 320.388,8.206 C319.506,8.206 318.829,8.546 318.308,9.224 C317.788,9.88 317.539,10.717 317.539,11.689 Z"></path>
                    <path d="M338.906,17.385 L336.102,17.385 L336.102,9.79 C336.102,8.728 335.628,8.207 334.702,8.207 C333.255,8.207 332.238,9.947 332.238,13.203 L332.238,17.385 L329.435,17.385 L329.435,5.992 L332.238,5.992 L332.238,7.823 C333.119,6.489 334.227,5.81 335.516,5.81 C336.985,5.81 338.228,6.601 338.704,8.162 C339.586,6.601 340.738,5.81 342.185,5.81 C344.288,5.81 345.576,7.122 345.576,9.314 L345.576,17.384 L342.772,17.384 L342.772,9.789 C342.772,8.727 342.298,8.206 341.371,8.206 C339.924,8.206 338.907,9.879 338.907,12.954 L338.907,17.385 L338.906,17.385 Z"></path>
                </g>
            </g>
        </g>
    </g>
</svg>