<?xml version="1.0" encoding="UTF-8"?>
<svg width="346px" height="176px" viewBox="0 0 346 176" version="1.1" xmlns="http://www.w3.org/2000/svg" xmlns:xlink="http://www.w3.org/1999/xlink">
    <!-- Generator: Sketch 43.2 (39069) - http://www.bohemiancoding.com/sketch -->
    <title>logo-bar-a-dark</title>
    <desc>Created with Sketch.</desc>
    <defs></defs>
    <g id="Page-1" stroke="none" stroke-width="1" fill="none" fill-rule="evenodd">
        <g id="logo-bar-a-dark" fill-rule="nonzero" fill="#42318B">
            <g id="Group">
                <path d="M43.258,3.744 C58.352,3.744 65.01,7.823 69.545,11.824 C76.326,17.736 80.216,26.162 80.216,34.942 C80.216,42.427 76.561,50.158 72.95,53.925 L70.135,56.863 L73.775,58.683 C84.087,63.84 91.016,75.709 91.016,88.219 C91.016,97.553 87.148,106.677 80.375,113.277 C73.141,120.511 63.636,123.737 49.558,123.737 L3.42,123.737 L3.42,3.744 L43.258,3.744 L43.258,3.744 Z M21.719,52.342 L24.719,52.342 L41.819,52.342 C49.25,52.342 53.943,50.711 57.523,46.877 C60.316,43.85 61.918,39.828 61.918,35.842 C61.918,31.858 60.316,27.836 57.511,24.795 C53.943,20.974 49.25,19.343 41.82,19.343 L24.72,19.343 L21.72,19.343 L21.72,22.343 L21.72,49.342 L21.72,52.342 L21.719,52.342 Z M21.719,108.14 L24.719,108.14 L49.018,108.14 C57.56,108.14 63.411,106.059 67.427,101.589 C70.888,97.899 72.717,93.215 72.717,88.041 C72.717,82.867 70.888,78.183 67.427,74.492 C63.41,70.023 57.56,67.941 49.018,67.941 L24.719,67.941 L21.719,67.941 L21.719,70.941 L21.719,105.139 L21.719,108.14 L21.719,108.14 Z M43.258,0.744 L0.42,0.744 L0.42,126.738 L49.558,126.738 C65.757,126.738 75.477,122.419 82.496,115.399 C89.516,108.559 94.016,98.839 94.016,88.22 C94.016,74.18 86.276,61.581 75.117,56.001 C79.257,51.681 83.217,43.222 83.217,34.941 C83.217,24.682 78.537,15.682 71.518,9.562 C65.397,4.164 57.477,0.744 43.258,0.744 L43.258,0.744 Z M24.719,49.342 L24.719,22.343 L41.819,22.343 C49.378,22.343 52.798,24.143 55.318,26.843 C57.477,29.183 58.918,32.423 58.918,35.842 C58.918,39.262 57.478,42.502 55.318,44.842 C52.797,47.543 49.378,49.342 41.819,49.342 L24.719,49.342 L24.719,49.342 Z M24.719,105.14 L24.719,70.942 L49.018,70.942 C57.477,70.942 62.157,73.102 65.217,76.522 C68.097,79.581 69.717,83.542 69.717,88.042 C69.717,92.541 68.097,96.501 65.217,99.562 C62.156,102.981 57.477,105.141 49.018,105.141 L24.719,105.141 L24.719,105.14 Z" id="Shape"></path>
                <path d="M283.018,3.744 C294.018,3.744 302.12,6.463 308.513,12.3 C314.998,18.453 318.717,27.032 318.717,35.842 C318.717,44.66 314.99,53.248 308.493,59.404 C305.246,62.48 301.5,64.672 297.039,66.105 L292.851,67.45 L295.632,70.857 L338.793,123.738 L316.494,123.738 L272.576,69.062 L271.676,67.941 L270.238,67.941 L261.418,67.941 L258.418,67.941 L258.418,70.941 L258.418,123.738 L240.12,123.738 L240.12,3.744 L283.018,3.744 L283.018,3.744 Z M258.418,52.342 L261.418,52.342 L281.578,52.342 C288.726,52.342 292.911,50.967 296.023,47.597 C298.775,44.615 300.418,40.287 300.418,36.023 C300.418,31.645 298.775,27.251 296.022,24.268 C292.835,20.816 288.515,19.343 281.578,19.343 L261.418,19.343 L258.418,19.343 L258.418,22.343 L258.418,49.342 L258.418,52.342 L258.418,52.342 Z M283.018,0.744 L237.121,0.744 L237.121,126.738 L261.419,126.738 L261.419,70.941 L270.239,70.941 L315.057,126.738 L345.116,126.738 L297.958,68.961 C302.999,67.342 307.138,64.821 310.558,61.582 C317.398,55.102 321.718,45.922 321.718,35.842 C321.718,25.763 317.398,16.584 310.558,10.104 C304.258,4.344 295.978,0.744 283.018,0.744 L283.018,0.744 Z M261.418,49.342 L261.418,22.343 L281.578,22.343 C288.598,22.343 291.658,23.963 293.818,26.303 C295.977,28.643 297.418,32.242 297.418,36.023 C297.418,39.623 295.978,43.223 293.818,45.563 C291.658,47.903 288.597,49.342 281.578,49.342 L261.418,49.342 L261.418,49.342 Z" id="Shape"></path>
                <path d="M168.791,1 L151.692,1 L97.694,127 L123.073,127 L134.953,99 L185.531,99 L197.41,127 L222.789,127 L168.791,1 Z M176.171,80 L144.133,80 L139.577,80 L141.377,75.936 L157.397,38.737 L160.153,32.358 L162.909,38.782 L178.928,75.928 L180.728,80 L176.171,80 L176.171,80 Z" id="Shape"></path>
            </g>
            <g id="Group" transform="translate(0.000000, 153.000000)">
                <path d="M0.42,0.986 L6.413,0.986 C9.292,0.986 11.094,2.507 11.094,5.41 C11.094,6.745 10.51,7.891 9.481,8.43 C11.118,9.11 11.938,10.444 11.938,12.434 C11.938,15.593 9.901,17.372 6.53,17.372 L0.421,17.372 L0.421,0.986 L0.42,0.986 Z M3.464,3.795 L3.464,7.354 L6.249,7.354 C7.536,7.354 8.168,6.862 8.168,5.575 C8.168,4.288 7.513,3.796 6.179,3.796 L3.464,3.796 L3.464,3.795 Z M3.464,10.162 L3.464,14.562 L6.249,14.562 C8.004,14.562 8.894,13.837 8.894,12.362 C8.894,10.888 8.004,10.162 6.249,10.162 L3.464,10.162 Z" id="Shape"></path>
                <polygon id="Shape" points="15.918 0.799 18.82 0.799 18.82 17.372 15.918 17.372"></polygon>
                <path d="M22.684,11.474 C22.684,9.718 23.223,8.267 24.3,7.12 C25.375,5.974 26.827,5.388 28.677,5.388 C30.527,5.388 31.978,5.974 33.054,7.12 C34.131,8.267 34.669,9.719 34.669,11.474 C34.669,13.229 34.131,14.703 33.054,15.852 C31.978,16.998 30.527,17.56 28.677,17.56 C26.827,17.56 25.375,16.998 24.3,15.852 C23.223,14.703 22.684,13.229 22.684,11.474 Z M25.727,11.474 C25.727,12.481 25.986,13.346 26.524,14.049 C27.062,14.727 27.764,15.078 28.677,15.078 C29.59,15.078 30.293,14.726 30.83,14.049 C31.368,13.346 31.626,12.481 31.626,11.474 C31.626,10.467 31.368,9.601 30.83,8.922 C30.293,8.22 29.59,7.868 28.677,7.868 C27.764,7.868 27.062,8.22 26.524,8.922 C25.986,9.601 25.727,10.467 25.727,11.474 Z" id="Shape"></path>
                <path d="M49.137,14.189 C48.224,16.435 46.445,17.559 43.776,17.559 C41.928,17.559 40.523,16.974 39.516,15.827 C38.509,14.681 38.018,13.228 38.018,11.473 C38.018,9.717 38.509,8.266 39.516,7.119 C40.523,5.973 41.928,5.387 43.776,5.387 C46.445,5.387 48.224,6.511 49.137,8.758 L46.539,9.811 C45.906,8.524 44.971,7.869 43.775,7.869 C41.997,7.869 41.059,9.321 41.059,11.474 C41.059,13.627 41.997,15.078 43.775,15.078 C44.97,15.078 45.906,14.423 46.539,13.135 L49.137,14.189 Z" id="Shape"></path>
                <polygon id="Shape" points="52.462 0.799 55.364 0.799 55.364 10.209 59.203 5.574 62.785 5.574 58.056 11.006 63.088 17.372 59.53 17.372 55.363 11.801 55.363 17.372 52.461 17.372 52.461 0.799"></polygon>
                <path d="M76.129,14.189 C75.216,16.435 73.438,17.559 70.769,17.559 C68.919,17.559 67.514,16.974 66.508,15.827 C65.502,14.681 65.011,13.228 65.011,11.473 C65.011,9.717 65.502,8.266 66.508,7.119 C67.514,5.973 68.919,5.387 70.769,5.387 C73.438,5.387 75.216,6.511 76.129,8.758 L73.531,9.811 C72.899,8.524 71.963,7.869 70.768,7.869 C68.989,7.869 68.053,9.321 68.053,11.474 C68.053,13.627 68.989,15.078 70.768,15.078 C71.962,15.078 72.899,14.423 73.531,13.135 L76.129,14.189 Z" id="Shape"></path>
                <path d="M79.643,0.799 L82.545,0.799 L82.545,7.471 C83.41,6.09 84.676,5.387 86.289,5.387 C88.56,5.387 89.965,6.604 89.965,8.946 L89.965,17.373 L87.063,17.373 L87.063,9.977 C87.063,8.572 86.477,7.87 85.308,7.87 C83.809,7.87 82.545,9.416 82.545,12.388 L82.545,17.374 L79.643,17.374 L79.643,0.799 L79.643,0.799 Z" id="Shape"></path>
                <path d="M94.11,8.664 C94.485,6.698 96.241,5.387 98.606,5.387 C101.905,5.387 103.567,7.026 103.567,10.326 L103.567,17.372 L101.18,17.372 L100.875,15.875 C99.962,16.998 98.744,17.56 97.247,17.56 C95.163,17.56 93.666,16.248 93.666,13.979 C93.666,11.637 95.701,10.116 98.698,10.116 L100.664,10.116 L100.664,9.601 C100.664,8.454 99.985,7.869 98.605,7.869 C97.55,7.869 96.872,8.313 96.568,9.227 L94.11,8.664 Z M97.926,15.078 C98.652,15.078 99.283,14.844 99.822,14.4 C100.383,13.955 100.664,13.369 100.664,12.643 L100.664,12.41 L98.722,12.41 C97.388,12.41 96.709,12.925 96.709,13.931 C96.709,14.562 97.153,15.078 97.926,15.078 Z" id="Shape"></path>
                <path d="M107.571,0.846 C108.298,0.12 109.514,0.12 110.241,0.846 C110.966,1.572 110.966,2.789 110.241,3.515 C109.514,4.241 108.298,4.241 107.571,3.515 C106.845,2.789 106.845,1.571 107.571,0.846 Z M107.455,5.574 L110.357,5.574 L110.357,17.372 L107.455,17.372 L107.455,5.574 Z" id="Shape"></path>
                <path d="M114.478,5.574 L117.38,5.574 L117.38,7.47 C118.34,6.089 119.558,5.386 121.032,5.386 C123.209,5.386 124.661,6.626 124.661,8.945 L124.661,17.372 L121.758,17.372 L121.758,9.81 C121.758,8.523 121.196,7.868 120.072,7.868 C118.574,7.868 117.38,9.694 117.38,12.668 L117.38,17.372 L114.478,17.372 L114.478,5.574 Z" id="Shape"></path>
                <path d="M138.497,17.372 L137.304,13.51 L132.107,13.51 L130.914,17.372 L127.636,17.372 L133.184,0.986 L136.228,0.986 L141.775,17.372 L138.497,17.372 Z M134.705,5.013 L132.974,10.701 L136.438,10.701 L134.705,5.013 Z" id="Shape"></path>
                <path d="M151.888,7.307 L150.156,8.899 C149.618,8.22 148.962,7.869 148.189,7.869 C147.604,7.869 147.112,8.221 147.112,8.852 C147.112,9.344 147.487,9.718 148.236,9.998 L149.079,10.303 L150.086,10.655 C150.274,10.725 150.554,10.889 150.929,11.099 C151.326,11.309 151.608,11.496 151.772,11.707 C152.123,12.105 152.497,12.807 152.497,13.627 C152.497,14.727 152.1,15.641 151.327,16.412 C150.555,17.185 149.548,17.559 148.307,17.559 C147.184,17.559 146.201,17.232 145.381,16.599 C144.561,15.968 143.976,15.218 143.625,14.376 L145.942,13.134 C146.41,14.422 147.207,15.077 148.306,15.077 C149.266,15.077 149.757,14.656 149.757,13.813 C149.757,13.438 149.57,13.133 149.125,12.923 C148.914,12.805 148.681,12.712 148.47,12.642 C148.072,12.455 147.252,12.198 146.808,12.01 C145.31,11.378 144.42,10.512 144.42,8.826 C144.42,7.866 144.771,7.07 145.473,6.391 C146.176,5.712 147.088,5.384 148.189,5.384 C149.757,5.387 151.139,6.159 151.888,7.307 Z" id="Shape"></path>
                <path d="M163.618,7.307 L161.885,8.899 C161.347,8.22 160.692,7.869 159.918,7.869 C159.333,7.869 158.842,8.221 158.842,8.852 C158.842,9.344 159.216,9.718 159.965,9.998 L160.808,10.303 L161.815,10.655 C162.003,10.725 162.283,10.889 162.658,11.099 C163.056,11.309 163.337,11.496 163.501,11.707 C163.853,12.105 164.227,12.807 164.227,13.627 C164.227,14.727 163.83,15.641 163.057,16.412 C162.284,17.185 161.278,17.559 160.037,17.559 C158.913,17.559 157.93,17.232 157.111,16.599 C156.291,15.968 155.706,15.218 155.355,14.376 L157.671,13.134 C158.14,14.422 158.936,15.077 160.036,15.077 C160.996,15.077 161.487,14.656 161.487,13.813 C161.487,13.438 161.299,13.133 160.854,12.923 C160.643,12.805 160.41,12.712 160.199,12.642 C159.802,12.455 158.983,12.198 158.537,12.01 C157.039,11.378 156.15,10.512 156.15,8.826 C156.15,7.866 156.501,7.07 157.204,6.391 C157.905,5.712 158.818,5.384 159.918,5.384 C161.487,5.387 162.868,6.159 163.618,7.307 Z" id="Shape"></path>
                <path d="M178.413,12.41 L170.29,12.41 C170.359,13.838 171.39,15.078 173.074,15.078 C174.269,15.078 175.229,14.47 175.931,13.252 L178.271,14.118 C177.265,16.412 175.486,17.559 172.911,17.559 C168.861,17.559 167.246,14.282 167.246,11.473 C167.246,8.663 168.861,5.386 172.911,5.386 C174.784,5.386 176.306,6.158 177.148,7.353 C177.992,8.499 178.413,9.88 178.413,11.215 L178.413,12.41 Z M170.359,10.115 L175.438,10.115 C175.111,8.617 174.269,7.868 172.911,7.868 C171.53,7.868 170.571,8.875 170.359,10.115 Z" id="Shape"></path>
                <path d="M189.251,17.139 C188.643,17.42 188.01,17.56 187.332,17.56 C184.617,17.56 183.001,16.086 183.001,13.206 L183.001,8.058 L181.175,8.058 L181.175,5.576 L183.001,5.576 L183.001,2.627 L185.903,0.801 L185.903,5.576 L189.017,5.576 L189.017,8.058 L185.903,8.058 L185.903,13.161 C185.903,14.564 186.418,15.08 187.448,15.08 C187.845,15.08 188.22,14.986 188.572,14.799 L189.251,17.139 Z" id="Shape"></path>
                <path d="M201.098,10.045 L205.637,17.372 L202.244,17.372 L197.843,10.303 L196.252,10.303 L196.252,17.372 L193.209,17.372 L193.209,0.986 L199.178,0.986 C202.362,0.986 204.162,2.836 204.162,5.644 C204.163,7.822 203.063,9.46 201.098,10.045 Z M199.202,7.494 C200.488,7.494 201.121,6.885 201.121,5.644 C201.121,4.403 200.488,3.794 199.202,3.794 L196.253,3.794 L196.253,7.493 L199.202,7.493 L199.202,7.494 Z" id="Shape"></path>
                <path d="M219.358,12.41 L211.235,12.41 C211.305,13.838 212.335,15.078 214.021,15.078 C215.215,15.078 216.174,14.47 216.875,13.252 L219.218,14.118 C218.211,16.412 216.431,17.559 213.857,17.559 C209.807,17.559 208.192,14.282 208.192,11.473 C208.192,8.663 209.807,5.386 213.857,5.386 C215.729,5.386 217.251,6.158 218.093,7.353 C218.936,8.499 219.358,9.88 219.358,11.215 L219.358,12.41 Z M211.305,10.115 L216.384,10.115 C216.057,8.617 215.215,7.868 213.857,7.868 C212.476,7.868 211.516,8.875 211.305,10.115 Z" id="Shape"></path>
                <path d="M224.509,6.488 C225.328,5.761 226.358,5.386 227.599,5.386 C228.371,5.386 229.097,5.55 229.776,5.902 L232,4.732 L233.147,6.65 L231.461,7.494 C231.765,8.032 231.929,8.664 231.929,9.366 C231.929,10.56 231.508,11.519 230.689,12.246 C229.87,12.948 228.839,13.299 227.599,13.299 C227.013,13.299 226.428,13.205 225.89,13.041 C225.515,13.252 225.328,13.557 225.328,13.932 C225.328,14.516 225.702,14.797 226.428,14.797 L228.839,14.797 C231.367,14.797 232.983,16.037 232.983,18.262 C232.983,19.176 232.702,19.948 232.164,20.579 C231.063,21.867 229.495,22.336 227.623,22.336 C226.056,22.336 224.766,22.007 223.761,21.328 C222.778,20.65 222.285,19.689 222.285,18.449 C222.285,17.488 222.613,16.693 223.245,16.108 C222.848,15.616 222.637,15.007 222.637,14.282 C222.637,13.205 223.128,12.386 224.088,11.801 C223.55,11.122 223.269,10.326 223.269,9.366 C223.268,8.173 223.69,7.213 224.509,6.488 Z M226.592,17.232 C226.055,17.232 225.608,17.209 225.235,17.138 C225.071,17.395 224.976,17.745 224.976,18.214 C224.976,19.315 226.03,19.9 227.622,19.9 C229.261,19.9 230.08,19.408 230.08,18.449 C230.08,17.63 229.448,17.232 228.184,17.232 L226.592,17.232 Z M227.599,10.959 C228.536,10.959 229.214,10.303 229.214,9.366 C229.214,8.406 228.535,7.728 227.599,7.728 C226.663,7.728 225.984,8.406 225.984,9.366 C225.984,10.303 226.663,10.959 227.599,10.959 Z" id="Shape"></path>
                <path d="M236.495,0.846 C237.221,0.12 238.438,0.12 239.165,0.846 C239.891,1.572 239.891,2.789 239.165,3.515 C238.438,4.241 237.221,4.241 236.495,3.515 C235.77,2.789 235.77,1.571 236.495,0.846 Z M236.378,5.574 L239.28,5.574 L239.28,17.372 L236.378,17.372 L236.378,5.574 Z" id="Shape"></path>
                <path d="M251.103,7.307 L249.372,8.899 C248.832,8.22 248.178,7.869 247.404,7.869 C246.819,7.869 246.328,8.221 246.328,8.852 C246.328,9.344 246.702,9.718 247.451,9.998 L248.294,10.303 L249.301,10.655 C249.489,10.725 249.769,10.889 250.143,11.099 C250.542,11.309 250.822,11.496 250.986,11.707 C251.339,12.105 251.713,12.807 251.713,13.627 C251.713,14.727 251.316,15.641 250.543,16.412 C249.77,17.185 248.764,17.559 247.522,17.559 C246.4,17.559 245.417,17.232 244.598,16.599 C243.778,15.968 243.193,15.218 242.841,14.376 L245.157,13.134 C245.627,14.422 246.423,15.077 247.521,15.077 C248.482,15.077 248.974,14.656 248.974,13.813 C248.974,13.438 248.786,13.133 248.341,12.923 C248.13,12.805 247.896,12.712 247.686,12.642 C247.289,12.455 246.468,12.198 246.024,12.01 C244.525,11.378 243.636,10.512 243.636,8.826 C243.636,7.866 243.988,7.07 244.69,6.391 C245.392,5.712 246.305,5.384 247.405,5.384 C248.973,5.387 250.353,6.159 251.103,7.307 Z" id="Shape"></path>
                <path d="M262.176,17.139 C261.568,17.42 260.936,17.56 260.258,17.56 C257.541,17.56 255.926,16.086 255.926,13.206 L255.926,8.058 L254.1,8.058 L254.1,5.576 L255.926,5.576 L255.926,2.627 L258.829,0.801 L258.829,5.576 L261.942,5.576 L261.942,8.058 L258.829,8.058 L258.829,13.161 C258.829,14.564 259.343,15.08 260.373,15.08 C260.771,15.08 261.146,14.986 261.497,14.799 L262.176,17.139 Z" id="Shape"></path>
                <path d="M268.802,17.372 L265.9,17.372 L265.9,5.574 L268.802,5.574 L268.802,7.494 C269.645,6.159 270.909,5.387 272.289,5.387 C272.734,5.387 273.202,5.457 273.717,5.621 L273.179,8.312 C272.828,8.101 272.407,7.985 271.962,7.985 C270.112,7.985 268.802,9.6 268.802,13.182 L268.802,17.372 L268.802,17.372 Z" id="Shape"></path>
                <polygon id="Shape" points="276.13 5.574 279.056 5.574 281.794 12.971 284.369 5.574 287.271 5.574 281.185 22.148 278.376 22.148 280.411 16.623"></polygon>
                <path d="M290.925,14.142 C291.674,13.393 292.985,13.393 293.733,14.142 C294.483,14.891 294.483,16.202 293.733,16.952 C292.985,17.7 291.674,17.7 290.925,16.952 C290.176,16.201 290.176,14.891 290.925,14.142 Z" id="Shape"></path>
                <path d="M309.465,14.189 C308.552,16.435 306.773,17.559 304.104,17.559 C302.256,17.559 300.851,16.974 299.844,15.827 C298.837,14.681 298.346,13.228 298.346,11.473 C298.346,9.717 298.837,8.266 299.844,7.119 C300.851,5.973 302.256,5.387 304.104,5.387 C306.773,5.387 308.552,6.511 309.465,8.758 L306.867,9.811 C306.234,8.524 305.299,7.869 304.103,7.869 C302.325,7.869 301.387,9.321 301.387,11.474 C301.387,13.627 302.325,15.078 304.103,15.078 C305.298,15.078 306.234,14.423 306.867,13.135 L309.465,14.189 Z" id="Shape"></path>
                <path d="M312.603,11.474 C312.603,9.718 313.142,8.267 314.218,7.12 C315.294,5.974 316.745,5.388 318.596,5.388 C320.445,5.388 321.896,5.974 322.974,7.12 C324.049,8.267 324.588,9.719 324.588,11.474 C324.588,13.229 324.049,14.703 322.974,15.852 C321.896,16.998 320.445,17.56 318.596,17.56 C316.745,17.56 315.294,16.998 314.218,15.852 C313.142,14.703 312.603,13.229 312.603,11.474 Z M315.646,11.474 C315.646,12.481 315.904,13.346 316.442,14.049 C316.981,14.727 317.682,15.078 318.596,15.078 C319.508,15.078 320.211,14.726 320.748,14.049 C321.287,13.346 321.545,12.481 321.545,11.474 C321.545,10.467 321.287,9.601 320.748,8.922 C320.211,8.22 319.508,7.868 318.596,7.868 C317.682,7.868 316.981,8.22 316.442,8.922 C315.904,9.601 315.646,10.467 315.646,11.474 Z" id="Shape"></path>
                <path d="M338.354,17.372 L335.452,17.372 L335.452,9.508 C335.452,8.406 334.96,7.868 334.001,7.868 C332.503,7.868 331.448,9.671 331.448,13.041 L331.448,17.372 L328.546,17.372 L328.546,5.574 L331.448,5.574 L331.448,7.47 C332.361,6.089 333.509,5.386 334.843,5.386 C336.364,5.386 337.654,6.205 338.144,7.822 C339.057,6.206 340.25,5.386 341.749,5.386 C343.926,5.386 345.26,6.744 345.26,9.015 L345.26,17.371 L342.357,17.371 L342.357,9.507 C342.357,8.405 341.867,7.867 340.907,7.867 C339.408,7.867 338.355,9.599 338.355,12.782 L338.355,17.372 L338.354,17.372 Z" id="Shape"></path>
            </g>
        </g>
    </g>
</svg>